<svg width="600" height="150" viewBox="0 0 600 150" xmlns="http://www.w3.org/2000/svg">
  <!-- 5 app icons side by side on dark background -->

  <!-- 6. Aperture -->
  <g transform="translate(10, 15)">
    <rect width="120" height="120" rx="26" fill="#0A0A0A"/>
    <path d="M 75 32 A 30 30 0 1 1 88 38"
          stroke="#FAF8F5"
          stroke-width="6"
          fill="none"
          stroke-linecap="square"/>
  </g>

  <!-- 7. Shift -->
  <g transform="translate(130, 15)">
    <rect width="120" height="120" rx="26" fill="#0A0A0A"/>
    <rect x="30" y="51" width="60" height="18" rx="9" fill="#FAF8F5"/>
    <rect x="51" y="30" width="18" height="60" rx="9" fill="#FAF8F5"/>
  </g>

  <!-- 8. Rise -->
  <g transform="translate(250, 15)">
    <rect width="120" height="120" rx="26" fill="#0A0A0A"/>
    <path d="M 30 90 Q 60 60, 90 30"
          stroke="#FAF8F5"
          stroke-width="7"
          fill="none"
          stroke-linecap="round"/>
  </g>

  <!-- 9. Nest -->
  <g transform="translate(370, 15)">
    <rect width="120" height="120" rx="26" fill="#0A0A0A"/>
    <rect x="22" y="22" width="76" height="76" rx="14" stroke="#FAF8F5" stroke-width="3.5" fill="none"/>
    <rect x="34" y="34" width="52" height="52" rx="10" stroke="#FAF8F5" stroke-width="3.5" fill="none"/>
    <rect x="46" y="46" width="28" height="28" rx="6" stroke="#FAF8F5" stroke-width="3.5" fill="none"/>
  </g>

  <!-- 10. Mark -->
  <g transform="translate(490, 15)">
    <rect width="120" height="120" rx="26" fill="#0A0A0A"/>
    <circle cx="60" cy="32" r="7" fill="#FAF8F5"/>
    <rect x="49" y="48" width="22" height="46" rx="11" fill="#FAF8F5"/>
  </g>
</svg>
